# xmcd
#
# Track frame offsets:
#	150
#	17135
#	37255
#	49747
#	67550
#	80965
#	94275
#	110992
#	123762
#	140742
#	160880
#	173362
#	191140
#	204565
#	217955
#	234692
#
# Disc length: 3299 seconds
#
# Revision: 2
# Processed by: cddbd v1.5.2PL0 Copyright (c) Steve Scherf et al.
# Submitted via: audiograbber 1.83.01
#
DISCID=e80ce110
DTITLE=Various Artist - SC2016
DYEAR=1900
DGENRE=Country
TTITLE0=Patty Loveless - Blame It On Your Heart
TTITLE1=Wynonna Judd - No One Else On Earth
TTITLE2=Martina McBride - My Baby Loves Me
TTITLE3=Suzy Bogguss - Hey Cinderella
TTITLE4=Faith Hill - Wild One
TTITLE5=Lorrie Morgan - What Part Of No
TTITLE6=Mary Chapin Carpenter - Passionate Kisses
TTITLE7=Trisha Yearwood - That's What I Like About You
TTITLE8=Patty Loveless - Blame It On Your Heart (Vocal)
TTITLE9=Wynonna Judd - No One Else On Earth (Vocal)
TTITLE10=Martina McBride - My Baby Loves Me (Vocal)
TTITLE11=Suzy Bogguss - Hey Cinderella (Vocal)
TTITLE12=Faith Hill - Wild One (Vocal)
TTITLE13=Lorrie Morgan - What Part Of No (Vocal)
TTITLE14=Mary Chapin Carpenter - Passionate Kisses (Vocal)
TTITLE15=Trisha Yearwood - That's What I Like About You (Vocal)
EXTD=Tracks 9 - 16 Have Vocal Demonstration
EXTT0=
EXTT1=
EXTT2=
EXTT3=
EXTT4=
EXTT5=
EXTT6=
EXTT7=
EXTT8=Vocal Demonstration\n
EXTT9=Vocal Demonstration\n
EXTT10=Vocal Demonstration\n
EXTT11=Vocal Demonstration\n
EXTT12=Vocal Demonstration\n
EXTT13=Vocal Demonstration\n
EXTT14=Vocal Demonstration\n
EXTT15=Vocal Demonstration\n
PLAYORDER=
